<svg xmlns="http://www.w3.org/2000/svg" viewBox="0 0 260 74" enable-background="new 0 0 260 74"><path d="M205.644 58.935c-.182 2.705-1.122 6.498-4.004 7.814-.65.297-1.449.416-2.041.053-.799-.491-.787-1.468-.572-2.373.8-3.37 4.311-5.143 6.617-5.494m-13.289-29.344c.248-3.639-5.074-4.506-7.568-1.556.694.804.889 2.447.649 4.189-.652 4.198-1.305 8.396-1.956 12.594-.347 2.232-1.552 6.75 3.029 6.893 1.37.043 3.228-.8 4.165-1.777-2.289-1.667.783-13.4 1.681-20.343zm-47.81-4.837l2.07-.007c8.077 0 13.52-12.053 3.842-14.122-3.545-.758-11.786.962-15.081 1.33-3.512.391-11.089 1.435-16.862.956-11.999-.998-9.329-12.033-3.824-12.911 4.104 6.241 16.301 5.343 23.203 5.276 8.588-.084 19.709-3.172 24.065 6.254 2.16 4.671-1.036 10.567-6.23 13.334 9.708 1.704 9.384 13.639 5.459 20.053-2.832 4.629-7.597 7.079-13.229 6.175-4.258-.684-5.549-4.968-4.101-7.586 1.26 1.248 2.672 2.117 4.38 2.117 4.012 0 6.731-4.621 7.059-9.13.49-6.777-2.923-9.543-9.789-8.747l-1.532.152c-1.72 9.549-3.404 19.925-1.356 21.416-1.265 1.318-2.92 2.455-4.769 2.397-6.178-.193-4.551-6.285-4.084-9.295.878-5.662 3.333-20.19 4.212-25.853.323-2.349-.202-1.593-1.139-2.678 3.465-1.902 9.491-1.413 9.3 1.371-.319 2.463-.927 5.831-1.594 9.498zm28.886 4.837c.249-3.639-5.074-4.506-7.568-1.556.695.804.889 2.447.649 4.189-.652 4.198-1.305 8.396-1.956 12.594-.346 2.232-1.552 6.75 3.029 6.893 1.371.043 3.227-.8 4.166-1.777-1.672-1.217-.487-7.793.624-13.957 1.128-1.813 2.363-2.749 3.456-3.064 1.317-.38 2.444.102 2.257 1.212.472.426 1.224.626 2.018.553 4.113-.375 5.037-6.747 1.094-7.555-3.431-.703-5.933 1.403-7.963 3.834.072-.471.137-.929.194-1.366zm-65.121.421c.156-2.3-1.999-3.471-4.217-3.239-2.112.146-5.05 1.918-7.457 4.703.079-.507.15-.997.211-1.464.156-2.3-1.999-3.471-4.217-3.239-2.583.178-6.399 2.789-8.972 6.707.242-1.386.458-2.707.61-3.889.248-3.639-5.074-4.506-7.568-1.556.694.804.888 2.447.648 4.189-.652 4.198-1.304 8.396-1.955 12.594-.347 2.232-1.553 6.75 3.028 6.893 1.372.043 3.229-.8 4.166-1.777-1.106-.806-.96-3.959-.414-7.787.285-1.989 1.295-4.821 2.872-6.783.795-.989 1.734-1.757 2.797-2.083 1.719-.527 1.793 1.433 1.571 2.625l-1.416 9.043c-.343 2.19-1.541 6.622 3.04 6.762 1.372.042 3.227-.785 4.163-1.743-1.381-.986-.822-5.554.034-10.52.24-1.398.583-2.871 1.329-4.055 1.271-2.017 4.156-3.416 4.195.117.01.931-.118 1.909-.2 2.429l-1.098 7.01c-.342 2.19-1.54 6.622 3.041 6.762 1.372.042 3.228-.785 4.163-1.743-2.293-1.636.76-13.146 1.646-19.956zm-56.366 0c.109-1.606-.909-2.662-2.288-3.073-1.673-.5-3.433.006-4.928.797-2.11 1.117-4.398 3.134-6.131 5.724 1.158-6.783 2.549-13.771 2.959-16.92.244-3.584-5.08-4.439-7.571-1.533.696.792.892 2.412.655 4.127l-4.402 25.789c-.343 2.198-1.543 6.648 3.039 6.79 1.371.042 3.227-.789 4.163-1.751-.719-.515-.669-3.325-.235-7.149.372-3.266 2.05-8.449 5.641-9.529 2.523-.759 1.632 2.836 1.44 4.062l-1.191 7.606c-.342 2.19-1.541 6.622 3.041 6.762 1.371.042 3.227-.785 4.163-1.743-2.294-1.639.759-13.149 1.645-19.959zm15.217 1.394c.773 0 1.191.532 1.12 1.33-.288 3.236-5.437 4.887-8.652 5.711.612-2.942 4.47-7.041 7.532-7.041zm6.638.015c.218-2.448-1.625-4.772-5.49-4.772-10.059 0-15.258 7.338-15.988 15.548-.445 5.004 3.04 9.476 9.713 9.903 2.784.179 6.369-1.037 8.897-2.884 5.81-4.234 2.272-8.925-.306-8.106-3.005 8.384-13.387 6.841-11.634.987 8.537-.358 14.309-5.064 14.808-10.676zm49.667-.015c.773 0 1.191.532 1.12 1.33-.288 3.236-5.437 4.887-8.651 5.711.61-2.942 4.468-7.041 7.531-7.041zm6.637.015c.218-2.448-1.624-4.772-5.49-4.772-10.059 0-15.258 7.338-15.987 15.548-.444 5.004 3.04 9.476 9.712 9.903 2.785.179 6.369-1.037 8.897-2.884 5.81-4.234 2.273-8.925-.305-8.106-3.006 8.384-13.387 6.841-11.634.987 8.536-.358 14.309-5.064 14.807-10.676zm-108.55-22.121l-.043.349-5.433 32.767c-.467 3.01-2.094 9.102 4.085 9.295 1.849.058 3.503-1.079 4.769-2.396-2.895-2.109 2.738-28.036 4.453-38.988 4.193.559 8.103 1.095 8.882 1.224 3.794.633 12.14 2.242 18.459 1.845 11.767-.741 11.234-12.08 6.031-13.25-5.75 6.316-18.357 4.715-25.593 4.267-1.113-.069-17.568-2.481-18.692-2.63-5.785-.761-12.266-.251-15.926 2.938-2.859 2.491-3.917 7.295.073 9.239 1.741-4.189 6.223-5.179 9.692-5.512 4.63-.443 7.035.42 9.243.852zm217.066 20.712c.109-1.606-.908-2.662-2.288-3.073-1.673-.5-3.432.006-4.928.797-2.11 1.117-4.398 3.134-6.131 5.724 1.158-6.783 2.55-13.771 2.959-16.92.243-3.584-5.08-4.439-7.571-1.533.696.792.893 2.412.655 4.127-.646 4.135-3.757 21.654-4.401 25.789-.344 2.198-1.544 6.648 3.037 6.79 1.372.042 3.227-.789 4.164-1.751-.72-.515-.669-3.325-.234-7.149.371-3.266 2.05-8.449 5.64-9.529 2.523-.759 1.633 2.836 1.44 4.062l-1.19 7.606c-.343 2.19-1.541 6.622 3.041 6.762 1.371.042 3.226-.785 4.162-1.743-2.293-1.639.759-13.149 1.645-19.959zm4.737-9.674c-2.075-.075-4.184-.558-6.169-.631-2.188-.081-4.872.36-5.701 2.722-.309.878-.216 1.84.306 2.659 1.118-1.563 5.926-1.045 10.831-.419-1.181 6.872-2.998 17.203-3.474 20.253-.343 2.198-1.543 6.649 3.038 6.79 1.371.042 3.227-.788 4.163-1.751-1.692-1.213.872-15.134 2.688-25.084 2.367.311 4.825.543 7.211.603 3.661-.128 5.118-3.793 2.223-5.971-.833.774-2.497 1.137-4.247 1.078-1.3-.066-3.041-.118-4.381-.164.277-1.58.496-2.914.622-3.884.244-3.584-5.08-4.439-7.57-1.533.696.792.892 2.411.654 4.127l-.194 1.205zm-53.966-3.959c2.042 0 3.698 1.656 3.698 3.699 0 2.042-1.656 3.698-3.698 3.698s-3.698-1.656-3.698-3.698c-.001-2.042 1.656-3.699 3.698-3.699zm18.517 26.383c-1.252 1.225-2.566 2.029-3.758 2.318-6.59 1.599-4.503-11.836.904-13.016 1.021-.223 2.09-.069 3.104.599.425.279.84.648 1.237 1.119 1.199-.734 2.492-3.904-1.057-5.847-5.826-3.188-14.087 1.583-15.054 12.397-.903 10.362 7.251 14.192 14.09 7.684-.125 1.192-.439 4.975-.874 5.965-5.139 1.132-12.702 4.405-13.66 12.085-1.07 8.581 8.385 9.833 13.797 5.039 3.106-2.752 4.699-7.329 5.727-12.667 11.455.23 27.897 4.771 34.917 4.33 9.659-.609 9.223-9.917 4.951-10.878-4.721 5.187-15.071 3.87-21.011 3.504-5.534-.342-12.269-1.68-18.092-1.708.119-.873.232-1.754.342-2.645.48-3.912.89-7.743 1.3-11.659.213-1.742.938-3.992 1.842-4.796-1.727-2.95-7.274-2.082-7.973 1.556-.249 1.912-.49 4.225-.732 6.62z"/></svg>